<svg xmlns="http://www.w3.org/2000/svg" width="18" height="25">
    <path data-name="대출반납_아이콘" d="M-2086.373 50.378a3.46 3.46 0 0 1-3.464-3.488q-.011-9.022 0-18.045a3.17 3.17 0 0 1 3.21-3.232q6.821-.013 13.642 0c.683 0 .948.278.949.983V43.964c0 .761-.245 1-1.018 1H-2086.261a1.934 1.934 0 0 0-1.923 2.56 1.951 1.951 0 0 0 1.948 1.3h13.256c.6 0 .955.311.942.794-.012.466-.36.753-.935.753h-7.622q-2.889.014-5.778.007zm-1.915-21.426v14.643c0 .1.013.21.017.28l1.891-.56V27.18h-.129a1.633 1.633 0 0 0-1.779 1.773zm3.515 14.423h11.164V27.184h-11.164zm11.818 4.237h-13.188a3.5 3.5 0 0 1-.4-.007.793.793 0 0 1-.727-.8.787.787 0 0 1 .744-.777c.13-.013.263-.005.4-.005h13.139a2.651 2.651 0 0 1 .444.009.766.766 0 0 1 .7.767.779.779 0 0 1-.717.8 1.564 1.564 0 0 1-.185.009z" transform="translate(2089.842 -25.609)" style="fill:#2d2d2d"/>
</svg>
