<svg xmlns="http://www.w3.org/2000/svg" width="48" height="48">
    <path data-name="알림_아이콘" d="M-2374.477 671.829a24 24 0 0 1 24-24 24 24 0 0 1 24 24 24 24 0 0 1-24 24 24 24 0 0 1-24-24zm3.84 0a20.181 20.181 0 0 0 20.16 20.16 20.183 20.183 0 0 0 20.158-20.16 20.183 20.183 0 0 0-20.158-20.16 20.181 20.181 0 0 0-20.16 20.16zm18.238 11.249v-14.817a1.92 1.92 0 0 1 1.922-1.92 1.919 1.919 0 0 1 1.918 1.92v14.817a1.92 1.92 0 0 1-1.918 1.921 1.921 1.921 0 0 1-1.923-1.921zm0-22.5a1.92 1.92 0 0 1 1.922-1.92 1.92 1.92 0 0 1 1.918 1.92 1.919 1.919 0 0 1-1.918 1.919 1.92 1.92 0 0 1-1.923-1.916z" transform="rotate(180 -1163.238 347.914)" style="fill:#a4a4a4"/>
</svg>
