<?xml version="1.0" encoding="UTF-8"?>
<svg xmlns="http://www.w3.org/2000/svg" id="Layer_1" data-name="Layer 1" viewBox="0 0 24 24" width="20" height="20" style="fill:#818181;"><path d="M23.133,12.093l-1.614,1.614c-.929,.921-2.335-.486-1.414-1.414l1.293-1.293H13c-1.308-.006-1.307-1.995,0-2h8.398l-1.293-1.293c-.921-.928,.486-2.335,1.414-1.414l1.614,1.614c1.154,1.154,1.154,3.032,0,4.187Zm-3.133,3.907v3c0,2.757-2.243,5-5,5H4c-2.206,0-4-1.794-4-4V5C0,2.243,2.243,0,5,0H15c2.282,0,4.273,1.542,4.843,3.75,.138,.535-.185,1.08-.72,1.218-.526,.14-1.08-.183-1.218-.719-.341-1.325-1.535-2.25-2.905-2.25H6v14h12c.006-1.308,1.995-1.307,2,0ZM2,5v11.556c.591-.344,1.268-.556,2-.556V2.184c-1.161,.414-2,1.514-2,2.816Zm16,14v-1H4c-2.629,.047-2.627,3.953,0,4H15c1.654,0,3-1.346,3-3Z"/></svg>
