<svg width="301" height="190" xmlns="http://www.w3.org/2000/svg" xmlns:xlink="http://www.w3.org/1999/xlink" overflow="hidden"><defs><clipPath id="clip0"><rect x="1284" y="42" width="301" height="190"/></clipPath></defs><g clip-path="url(#clip0)" transform="translate(-1284 -42)"><path d="M182.599 144.974 107.878 220.224C103.704 223.928 98.8832 225.75 94.0625 225.75 89.2418 225.75 84.4328 223.913 80.7585 220.239L6.03764 144.989C0.131923 139.624-1.47913 131.511 1.43328 124.515 4.34569 117.519 11.2111 112.875 18.8125 112.875L168.783 112.875C176.391 112.875 183.257 117.449 186.173 124.486 189.089 131.522 188.007 139.624 182.599 144.974Z" fill="#545454bf" fill-rule="nonzero" fill-opacity="1" transform="matrix(-1.84551e-16 -1.00465 1 -1.83697e-16 1284 232)"/></g></svg>