<svg xmlns="http://www.w3.org/2000/svg" width="25" height="25">
    <path data-name="이용안내_아이콘" d="M-2374.478 660.329a12.5 12.5 0 0 1 12.5-12.5 12.5 12.5 0 0 1 12.5 12.5 12.5 12.5 0 0 1-12.5 12.5 12.5 12.5 0 0 1-12.5-12.5zm2 0a10.512 10.512 0 0 0 10.5 10.5 10.512 10.512 0 0 0 10.5-10.5 10.512 10.512 0 0 0-10.5-10.5 10.512 10.512 0 0 0-10.5 10.5zm9.5 5.859v-7.718a1 1 0 0 1 1-1 1 1 0 0 1 1 1v7.718a1 1 0 0 1-1 1 1 1 0 0 1-1-1zm0-11.718a1 1 0 0 1 1-1 1 1 0 0 1 1 1 1 1 0 0 1-1 1 1 1 0 0 1-1-1z" transform="translate(2374.478 -647.829)" style="fill:#2d2d2d"/>
</svg>
