<svg width="65" height="42" xmlns="http://www.w3.org/2000/svg" color="currentColor">
 <g>
  <path fill="currentColor" d="m39.96699,33.02q5.264,-4.206 10.542,-8.389a0.752,0.752 0 0 0 0.329,-0.662c-0.013,-2.674 -0.008,-5.348 -0.008,-8.022l0,-0.407l-22.127,0l0,8.827l10.992,-8.813c0.014,0.108 0.024,0.151 0.024,0.2c0,2.8 0,5.6 -0.008,8.4a0.59,0.59 0 0 1 -0.215,0.387q-5.268,4.226 -10.552,8.433a0.62,0.62 0 0 0 -0.268,0.545c0.01,2.709 0.006,5.418 0.007,8.127c0,0.112 0.009,0.224 0.015,0.354l22.107,0l0,-8.806l-11.027,8.771c-0.013,-0.127 -0.022,-0.172 -0.022,-0.218c0,-2.778 0,-5.557 0.007,-8.335a0.584,0.584 0 0 1 0.204,-0.392z" class="cls-1" data-name="패스 66" id="패스_66"/>
  <path fill="currentColor" d="m16.91199,23.98l0,8.5l8.43,0l0,-15.422l-16.843,0l16.87,-17.044c-0.138,-0.01 -0.193,-0.018 -0.247,-0.018c-2.653,0 -5.306,-0.005 -7.959,0.009a0.747,0.747 0 0 0 -0.461,0.228q-8.244,8.292 -16.479,16.592a0.7,0.7 0 0 0 -0.223,0.544c0.008,2.072 0,4.144 0,6.217l0,0.389l16.912,0.005z" class="cls-1" data-name="패스 67" id="패스_67"/>
  <path fill="currentColor" d="m60.95499,18.069l-5.829,0c0.4,0.459 0.756,0.879 1.13,1.281a0.465,0.465 0 0 0 0.311,0.088q3.153,0.009 6.306,0.005a0.5,0.5 0 0 0 0.291,-0.063c0.5,-0.4 0.994,-0.8 1.483,-1.2c-0.023,-0.045 -0.025,-0.06 -0.033,-0.065c-0.1,-0.058 -0.2,-0.117 -0.3,-0.172a38.828,38.828 0 0 1 -10.867,-8.635a57.115,57.115 0 0 1 -6.217,-9.021a0.877,0.877 0 0 0 -0.444,-0.285l-19.309,0a1.593,1.593 0 0 0 1.4,0.785c5.892,-0.032 11.785,-0.019 17.677,-0.019a0.729,0.729 0 0 1 0.273,0.008c0.08,0.034 0.136,0.126 0.2,0.193l-0.073,0.1l-18.433,0c0.057,0.146 0.163,0.207 0.228,0.3a1.127,1.127 0 0 0 1.035,0.447q8.391,-0.022 16.782,-0.01a0.826,0.826 0 0 1 0.273,0.007a0.953,0.953 0 0 1 0.226,0.176l-0.062,0.1l-17.448,0l-0.061,0.091a2.323,2.323 0 0 1 0.38,0.329a1.12,1.12 0 0 0 1.012,0.425q7.873,-0.021 15.748,-0.009a0.774,0.774 0 0 1 0.273,0.008c0.078,0.03 0.135,0.117 0.2,0.179l-0.062,0.085l-16.447,0a1.7,1.7 0 0 0 1.427,0.828c4.9,-0.054 9.809,-0.051 14.713,-0.075a0.591,0.591 0 0 1 0.56,0.29a51.319,51.319 0 0 0 13.5,13.679a1.839,1.839 0 0 1 0.157,0.15z" class="cls-1" data-name="패스 68" id="패스_68"/>
  <path fill="currentColor" d="m24.98199,37.704c-1.3,-0.459 -2.6,-0.9 -3.9,-1.342l-10.7,-3.649c-0.331,-0.113 -0.44,-0.027 -0.454,0.3c-0.011,0.258 0.179,0.264 0.332,0.317q5.13,1.779 10.261,3.553l2.414,0.843l-0.012,0.069l-14.427,0l0.277,0.817l15.939,0a2.554,2.554 0 0 1 0.42,0.069l-0.015,0.207l-16.278,0l0.119,0.861l16.012,0a1.333,1.333 0 0 1 0.333,0.108l-0.028,0.145l-16.325,0l-0.112,0.891l15.877,0a2.889,2.889 0 0 1 0.42,0.06l-0.01,0.2l-16.375,0.016c-0.067,0.215 -0.175,0.523 -0.268,0.82l16.523,0a0.5,0.5 0 0 0 0.35,-0.244a3.814,3.814 0 0 0 0.012,-3.714a0.773,0.773 0 0 0 -0.385,-0.327z" class="cls-1" data-name="패스 69" id="패스_69"/>
 </g>
</svg>