<svg xmlns="http://www.w3.org/2000/svg" width="140" height="140" viewBox="0 0 140 140" fill="none">
  <path d="M70.0023 54.4444C60.7641 54.4444 56.124 57.7189 49.4892 69.4089L47.7816 72.5044L45.0171 77.8556C44.6865 78.513 44.3575 79.1715 44.0303 79.8311C42.3506 83.2067 40.034 85.6878 36.0588 88.7133L32.2095 91.5522C25.6308 96.4289 22.1874 100.248 20.2628 106.758C19.395 109.387 18.8911 113.392 18.9121 116.713C18.9121 129.834 27.2965 140 38.5083 140L40.202 139.953C41.0348 139.907 41.8397 139.821 42.6795 139.689L44.4152 139.354L45.339 139.137L47.3756 138.569L48.5094 138.219L52.4987 136.897L57.8386 135.007L61.023 133.949C64.7323 132.782 67.6018 132.222 70.0023 132.222C72.4099 132.222 75.2723 132.79 78.9816 133.949L82.166 135.007L87.513 136.889L91.4952 138.219L93.6788 138.872C94.3577 139.059 94.9876 139.222 95.5895 139.354L97.3251 139.689C98.165 139.821 98.9698 139.907 99.8026 139.953L101.496 140C112.708 140 121.093 129.834 121.093 116.667C121.093 113.346 120.582 109.363 119.644 106.509C117.992 100.878 114.906 96.9967 109.286 92.2756L107.487 90.7978L103.792 87.8422C99.2987 84.1867 96.7722 81.4178 95.0226 77.9022L93.1329 74.13L91.3693 70.77C84.2936 57.5789 80.0454 54.4444 70.0023 54.4444Z" fill="black"/>
  <path d="M124.452 31.1111H124.242C115.71 31.2667 107.795 39.4022 103.89 50.5867C99.0605 64.3922 101.454 79.52 111.413 84.2878C113.205 85.1356 115.101 85.5556 117.019 85.5556C125.634 85.5556 133.676 77.3656 137.616 66.08C142.417 52.2822 139.996 37.1467 130.086 32.3867C128.306 31.5444 126.385 31.1105 124.452 31.1111Z" fill="black"/>
  <path d="M49.1814 0C48.3976 0 47.8867 0.0155564 47.2918 0.116667L46.6409 0.24111C35.9189 1.84333 29.8651 15.7111 31.8877 30.2244C33.7913 43.6411 42.1197 54.4444 52.3238 54.4444L53.6326 54.4056C53.8292 54.3869 54.0253 54.361 54.2204 54.3278L54.8643 54.2033C65.5933 52.6011 71.6401 38.7333 69.6175 24.22C67.7279 10.7878 59.3995 0 49.1814 0Z" fill="black"/>
  <path d="M90.797 4.7103e-05C80.5859 4.7103e-05 72.2715 10.7956 70.3889 24.2123C68.3593 38.7334 74.4061 52.6012 85.604 54.2889C86.3248 54.39 87.0037 54.4445 87.6756 54.4445C97.4037 54.4445 105.473 44.6056 107.811 32.0212L108.098 30.2323C110.127 15.7112 104.08 1.84338 92.8826 0.155603C92.1915 0.0501853 91.4946 -0.00179128 90.797 4.7103e-05Z" fill="black"/>
  <path d="M15.5275 31.1111C13.6099 31.1111 11.7202 31.5311 9.94958 32.3633C-0.0305145 37.1467 -2.41706 52.29 2.40502 66.08C6.34527 77.3656 14.3727 85.5556 22.9881 85.5556C24.9057 85.5556 26.7954 85.1356 28.566 84.3033C38.5461 79.52 40.9327 64.3767 36.1106 50.5867C32.1703 39.3011 24.1429 31.1111 15.5275 31.1111Z" fill="black"/>
  <path d="M70.0023 54.4444C60.7641 54.4444 56.124 57.7189 49.4892 69.4089L47.7816 72.5044L45.0171 77.8556C44.6865 78.513 44.3575 79.1715 44.0303 79.8311C42.3506 83.2067 40.034 85.6878 36.0588 88.7133L32.2095 91.5522C25.6308 96.4289 22.1874 100.248 20.2628 106.758C19.395 109.387 18.8911 113.392 18.9121 116.713C18.9121 129.834 27.2965 140 38.5083 140L40.202 139.953C41.0348 139.907 41.8397 139.821 42.6795 139.689L44.4152 139.354L45.339 139.137L47.3756 138.569L48.5094 138.219L52.4987 136.897L57.8386 135.007L61.023 133.949C64.7323 132.782 67.6018 132.222 70.0023 132.222C72.4099 132.222 75.2723 132.79 78.9816 133.949L82.166 135.007L87.513 136.889L91.4952 138.219L93.6788 138.872C94.3577 139.059 94.9876 139.222 95.5895 139.354L97.3251 139.689C98.165 139.821 98.9698 139.907 99.8026 139.953L101.496 140C112.708 140 121.093 129.834 121.093 116.667C121.093 113.346 120.582 109.363 119.644 106.509C117.992 100.878 114.906 96.9967 109.286 92.2756L107.487 90.7978L103.792 87.8422C99.2987 84.1867 96.7722 81.4178 95.0226 77.9022L93.1329 74.13L91.3693 70.77C84.2936 57.5789 80.0454 54.4444 70.0023 54.4444Z" stroke="black"/>
  <path d="M124.452 31.1111H124.242C115.71 31.2667 107.795 39.4022 103.89 50.5867C99.0605 64.3922 101.454 79.52 111.413 84.2878C113.205 85.1356 115.101 85.5556 117.019 85.5556C125.634 85.5556 133.676 77.3656 137.616 66.08C142.417 52.2822 139.996 37.1467 130.086 32.3867C128.306 31.5444 126.385 31.1105 124.452 31.1111Z" stroke="black"/>
  <path d="M49.1814 0C48.3976 0 47.8867 0.0155564 47.2918 0.116667L46.6409 0.24111C35.9189 1.84333 29.8651 15.7111 31.8877 30.2244C33.7913 43.6411 42.1197 54.4444 52.3238 54.4444L53.6326 54.4056C53.8292 54.3869 54.0253 54.361 54.2204 54.3278L54.8643 54.2033C65.5933 52.6011 71.6401 38.7333 69.6175 24.22C67.7279 10.7878 59.3995 0 49.1814 0Z" stroke="black"/>
  <path d="M90.797 4.7103e-05C80.5859 4.7103e-05 72.2715 10.7956 70.3889 24.2123C68.3593 38.7334 74.4061 52.6012 85.604 54.2889C86.3248 54.39 87.0037 54.4445 87.6756 54.4445C97.4037 54.4445 105.473 44.6056 107.811 32.0212L108.098 30.2323C110.127 15.7112 104.08 1.84338 92.8826 0.155603C92.1915 0.0501853 91.4946 -0.00179128 90.797 4.7103e-05Z" stroke="black"/>
  <path d="M15.5275 31.1111C13.6099 31.1111 11.7202 31.5311 9.94958 32.3633C-0.0305145 37.1467 -2.41706 52.29 2.40502 66.08C6.34527 77.3656 14.3727 85.5556 22.9881 85.5556C24.9057 85.5556 26.7954 85.1356 28.566 84.3033C38.5461 79.52 40.9327 64.3767 36.1106 50.5867C32.1703 39.3011 24.1429 31.1111 15.5275 31.1111Z" stroke="black"/>
  <path d="M78.3711 117.155C82.0037 114.255 85.6411 111.363 89.2834 108.479C89.3944 108.404 89.484 108.301 89.5437 108.182C89.6033 108.062 89.631 107.928 89.6239 107.795C89.6105 105.029 89.6156 102.264 89.6156 99.4981V99.0771H66.7115V108.206L78.0896 99.0916C78.1041 99.2033 78.1144 99.2478 78.1144 99.2985C78.1144 102.194 78.1144 105.09 78.1061 107.986C78.0868 108.143 78.0069 108.287 77.8836 108.386C74.2482 111.3 70.6074 114.207 66.961 117.108C66.8703 117.17 66.797 117.254 66.7485 117.353C66.6999 117.452 66.6775 117.561 66.6836 117.671C66.6939 120.473 66.6898 123.275 66.6908 126.076C66.6908 126.192 66.7001 126.308 66.7064 126.442H89.5897V117.335L78.1755 126.406C78.162 126.275 78.1527 126.228 78.1527 126.181C78.1527 123.308 78.1527 120.434 78.16 117.561C78.1745 117.403 78.2503 117.257 78.3711 117.155Z" fill="white"/>
  <path d="M54.5067 107.806V116.597H63.2327V100.647H45.7982L63.2607 83.0195C63.1178 83.0092 63.0609 83.0009 63.005 83.0009C60.2588 83.0009 57.5127 82.9957 54.7665 83.0102C54.5845 83.0299 54.4154 83.1135 54.2893 83.246C48.6003 88.9632 42.9144 94.6832 37.2315 100.406C37.1545 100.477 37.094 100.565 37.0541 100.662C37.0143 100.759 36.9961 100.864 37.0007 100.969C37.009 103.111 37.0007 105.254 37.0007 107.398V107.801L54.5067 107.806Z" fill="white"/>
  <path d="M100.097 101.693H94.063C94.477 102.168 94.8455 102.602 95.2326 103.018C95.3256 103.086 95.4398 103.118 95.5545 103.109C97.7304 103.115 99.9062 103.117 102.082 103.114C102.187 103.124 102.292 103.101 102.383 103.049C102.901 102.635 103.412 102.222 103.918 101.808C103.895 101.761 103.892 101.746 103.884 101.741C103.781 101.681 103.677 101.62 103.574 101.563C99.3177 99.285 95.5072 96.2597 92.325 92.6318C89.8856 89.735 87.7305 86.6105 85.8896 83.3016C85.7703 83.1585 85.6099 83.0556 85.43 83.0068H65.4429C65.5909 83.2582 65.803 83.4658 66.0576 83.6085C66.3122 83.7511 66.6002 83.8237 66.892 83.8187C72.991 83.7856 79.0909 83.7991 85.1899 83.7991C85.2837 83.784 85.3796 83.7868 85.4725 83.8074C85.5553 83.8425 85.6132 83.9377 85.6795 84.007L85.6039 84.1104H66.5235C66.5825 84.2614 66.6923 84.3245 66.7595 84.4207C66.8818 84.585 67.0451 84.7142 67.2332 84.7953C67.4213 84.8765 67.6274 84.9067 67.8309 84.883C73.6214 84.8678 79.4118 84.8644 85.2023 84.8727C85.2962 84.8594 85.3917 84.8618 85.4849 84.8799C85.5716 84.9285 85.6504 84.9898 85.7188 85.0619L85.6546 85.1654H67.5939L67.5307 85.2595C67.6738 85.3584 67.8056 85.4725 67.9241 85.5998C68.0462 85.7567 68.2068 85.8796 68.3902 85.9566C68.5737 86.0335 68.7739 86.062 68.9716 86.0393C74.4046 86.0249 79.8383 86.0217 85.2727 86.03C85.3666 86.016 85.4623 86.0188 85.5553 86.0383C85.636 86.0693 85.695 86.1593 85.7623 86.2234L85.6981 86.3113H68.6735C68.8267 86.5676 69.0427 86.7808 69.3011 86.9306C69.5595 87.0804 69.8519 87.162 70.1506 87.1677C75.2227 87.1119 80.3041 87.115 85.3803 87.0901C85.4954 87.0804 85.611 87.1033 85.7136 87.1564C85.8161 87.2095 85.9016 87.2905 85.96 87.3901C89.6848 92.9432 94.426 97.7433 99.9342 101.538C99.9913 101.586 100.046 101.638 100.097 101.693Z" fill="white"/>
  <path d="M62.8603 121.999C61.5146 121.525 60.1689 121.069 58.8233 120.611L47.7475 116.838C47.4049 116.721 47.292 116.81 47.2775 117.148C47.2661 117.415 47.4628 117.421 47.6212 117.476C51.1613 118.702 54.7018 119.927 58.2426 121.15C59.0707 121.439 59.9081 121.731 60.7414 122.022L60.7289 122.093H45.7952L46.082 122.938H62.5808C62.7274 122.95 62.8728 122.974 63.0155 123.01L63 123.224H46.1503L46.2735 124.114H62.8478C62.9672 124.136 63.083 124.174 63.1925 124.226L63.1635 124.376H46.2652C46.2207 124.725 46.1865 125.001 46.1493 125.297H62.5839C62.7301 125.307 62.8754 125.328 63.0186 125.359L63.0083 125.566L46.0582 125.583C45.9888 125.805 45.877 126.124 45.7808 126.431H62.884C62.9593 126.418 63.0308 126.389 63.0935 126.345C63.1561 126.301 63.2083 126.244 63.2463 126.178C63.5758 125.592 63.7499 124.932 63.7521 124.26C63.7543 123.587 63.5845 122.926 63.2588 122.337C63.1676 122.183 63.0273 122.064 62.8603 121.999Z" fill="white"/>
</svg>