<svg xmlns="http://www.w3.org/2000/svg" width="28" height="28">
    <path d="m-1582.056 740.237-7.3-7.3a11.546 11.546 0 0 0 2.763-7.511 11.593 11.593 0 0 0-11.593-11.593 11.593 11.593 0 0 0-11.593 11.593 11.593 11.593 0 0 0 11.593 11.593 11.548 11.548 0 0 0 7.511-2.763l7.3 7.3a.929.929 0 0 0 .659.273.93.93 0 0 0 .659-.273.932.932 0 0 0 .001-1.319zm-25.861-14.814a9.739 9.739 0 0 1 9.728-9.728 9.739 9.739 0 0 1 9.728 9.728 9.739 9.739 0 0 1-9.728 9.728 9.739 9.739 0 0 1-9.728-9.729z" transform="translate(1609.783 -713.829)" style="fill:#fff"/>
</svg>
