<svg xmlns="http://www.w3.org/2000/svg" width="21" height="14">
    <path data-name="youtube" d="M20.569 7.586a2.574 2.574 0 0 0-1.828-1.743c-1.637-.418-8.225-.418-8.225-.418s-6.571-.008-8.225.418A2.574 2.574 0 0 0 .464 7.586a24.923 24.923 0 0 0-.457 4.847 24.923 24.923 0 0 0 .457 4.829A2.574 2.574 0 0 0 2.292 19c1.635.419 8.225.419 8.225.419s6.57 0 8.225-.419a2.574 2.574 0 0 0 1.828-1.743 24.921 24.921 0 0 0 .438-4.829 24.92 24.92 0 0 0-.438-4.847zM8.414 15.431V9.425l5.486 3.008z" transform="translate(-.007 -5.424)" style="fill:#d5d5d5"/>
</svg>
