<?xml version="1.0" encoding="iso-8859-1"?>
<!-- Generator: Adobe Illustrator 16.0.0, SVG Export Plug-In . SVG Version: 6.00 Build 0)  -->
<!DOCTYPE svg PUBLIC "-//W3C//DTD SVG 1.1//EN" "http://www.w3.org/Graphics/SVG/1.1/DTD/svg11.dtd">
<svg version="1.1" id="Capa_1" xmlns="http://www.w3.org/2000/svg" xmlns:xlink="http://www.w3.org/1999/xlink" x="0px" y="0px"
	 width="91.334px" height="91.334px" viewBox="0 0 91.334 91.334" style="enable-background:new 0 0 91.334 91.334;"
	 xml:space="preserve">
<g>
	<g>
		<path d="M6.834,11.549H1c-0.552,0-1,0.448-1,1v66.236c0,0.552,0.448,1,1,1h5.834c0.552,0,1-0.448,1-1V12.549
			C7.834,11.997,7.386,11.549,6.834,11.549z"/>
		<path d="M62.043,11.549h-4.168c-0.553,0-1,0.448-1,1v66.236c0,0.552,0.447,1,1,1h4.168c0.553,0,1-0.448,1-1V12.549
			C63.043,11.997,62.596,11.549,62.043,11.549z"/>
		<path d="M17,11.549h-4c-0.552,0-1,0.448-1,1v66.236c0,0.552,0.448,1,1,1h4c0.552,0,1-0.448,1-1V12.549
			C18,11.997,17.552,11.549,17,11.549z"/>
		<path d="M90.334,11.549h-4c-0.552,0-1,0.448-1,1v66.236c0,0.552,0.448,1,1,1h4c0.553,0,1-0.448,1-1V12.549
			C91.334,11.997,90.887,11.549,90.334,11.549z"/>
		<path d="M81.167,11.549h-2.724c-0.553,0-1,0.448-1,1v66.236c0,0.552,0.447,1,1,1h2.724c0.552,0,1-0.448,1-1V12.549
			C82.167,11.997,81.719,11.549,81.167,11.549z"/>
		<path d="M51.875,11.549h-4c-0.553,0-1,0.448-1,1v66.236c0,0.552,0.447,1,1,1h4c0.552,0,1-0.448,1-1V12.549
			C52.875,11.997,52.427,11.549,51.875,11.549z"/>
		<path d="M42.167,11.549h-2.5c-0.552,0-1,0.448-1,1v66.236c0,0.552,0.448,1,1,1h2.5c0.552,0,1-0.448,1-1V12.549
			C43.167,11.997,42.719,11.549,42.167,11.549z"/>
		<path d="M73.523,11.549H71.98c-0.553,0-1,0.448-1,1v66.236c0,0.552,0.447,1,1,1h1.543c0.552,0,1-0.448,1-1V12.549
			C74.523,11.997,74.076,11.549,73.523,11.549z"/>
		<path d="M33.667,11.549h-4c-0.552,0-1,0.448-1,1v66.236c0,0.552,0.448,1,1,1h4c0.552,0,1-0.448,1-1V12.549
			C34.667,11.997,34.219,11.549,33.667,11.549z"/>
		<path d="M23.667,11.549h-1c-0.552,0-1,0.448-1,1v66.236c0,0.552,0.448,1,1,1h1c0.552,0,1-0.448,1-1V12.549
			C24.667,11.997,24.219,11.549,23.667,11.549z"/>
		<path d="M67.227,11.549h-0.363c-0.551,0-1,0.448-1,1v66.236c0,0.552,0.449,1,1,1h0.363c0.551,0,1-0.448,1-1V12.549
			C68.227,11.997,67.777,11.549,67.227,11.549z"/>
	</g>
</g>
<g>
</g>
<g>
</g>
<g>
</g>
<g>
</g>
<g>
</g>
<g>
</g>
<g>
</g>
<g>
</g>
<g>
</g>
<g>
</g>
<g>
</g>
<g>
</g>
<g>
</g>
<g>
</g>
<g>
</g>
</svg>
