<svg xmlns="http://www.w3.org/2000/svg" width="20" height="20">
    <path data-name="github" d="M10 .445A10.128 10.128 0 0 0 0 10.7a10.232 10.232 0 0 0 6.837 9.728c.5.1.683-.22.683-.493 0-.244-.008-.889-.013-1.743-2.782.619-3.368-1.376-3.368-1.376a2.7 2.7 0 0 0-1.113-1.5c-.906-.636.07-.623.07-.623a2.1 2.1 0 0 1 1.532 1.056 2.1 2.1 0 0 0 2.913.853 2.207 2.207 0 0 1 .633-1.371c-2.221-.256-4.555-1.138-4.555-5.067a4.012 4.012 0 0 1 1.03-2.752A3.731 3.731 0 0 1 4.737 4.7s.838-.275 2.75 1.051a9.2 9.2 0 0 1 5 0c1.9-1.326 2.737-1.051 2.737-1.051a3.835 3.835 0 0 1 .1 2.714 4.029 4.029 0 0 1 1.025 2.751c0 3.939-2.338 4.807-4.562 5.059a2.489 2.489 0 0 1 .675 1.9c0 1.372-.013 2.475-.013 2.808 0 .269.175.59.687.487A10.2 10.2 0 0 0 20 10.7 10.13 10.13 0 0 0 10 .445" transform="translate(0 -.445)" style="fill:#d5d5d5"/>
</svg>
