<svg id="집현전로고" xmlns="http://www.w3.org/2000/svg" width="124" height="42">
    <defs>
        <style>
            .cls-1{fill:#fff}
        </style>
    </defs>
    <path id="패스_66" data-name="패스 66" class="cls-1" d="M502.9-114.584q5.264-4.206 10.542-8.389a.752.752 0 0 0 .329-.662c-.013-2.674-.008-5.348-.008-8.022v-.407h-22.127v8.827l10.992-8.813c.014.108.024.151.024.2 0 2.8 0 5.6-.008 8.4a.59.59 0 0 1-.215.387q-5.268 4.226-10.552 8.433a.62.62 0 0 0-.268.545c.01 2.709.006 5.418.007 8.127 0 .112.009.224.015.354h22.107v-8.806l-11.027 8.771c-.013-.127-.022-.172-.022-.218 0-2.778 0-5.557.007-8.335a.584.584 0 0 1 .204-.392z" transform="translate(-462.933 147.604)"/>
    <path id="패스_67" data-name="패스 67" class="cls-1" d="M479.845-123.624v8.5h8.43v-15.422h-16.843l16.87-17.044c-.138-.01-.193-.018-.247-.018-2.653 0-5.306-.005-7.959.009a.747.747 0 0 0-.461.228q-8.244 8.292-16.479 16.592a.7.7 0 0 0-.223.544c.008 2.072 0 4.144 0 6.217v.389z" transform="translate(-462.933 147.604)"/>
    <path id="패스_68" data-name="패스 68" class="cls-1" d="M523.888-129.535h-5.829c.4.459.756.879 1.13 1.281a.465.465 0 0 0 .311.088q3.153.009 6.306.005a.5.5 0 0 0 .291-.063c.5-.4.994-.8 1.483-1.2-.023-.045-.025-.06-.033-.065-.1-.058-.2-.117-.3-.172a38.828 38.828 0 0 1-10.867-8.635 57.115 57.115 0 0 1-6.217-9.021.877.877 0 0 0-.444-.285H490.41a1.593 1.593 0 0 0 1.4.785c5.892-.032 11.785-.019 17.677-.019a.729.729 0 0 1 .273.008c.08.034.136.126.2.193l-.073.1h-18.433c.057.146.163.207.228.3a1.127 1.127 0 0 0 1.035.447q8.391-.022 16.782-.01a.826.826 0 0 1 .273.007.953.953 0 0 1 .226.176l-.062.1h-17.448l-.061.091a2.323 2.323 0 0 1 .38.329 1.12 1.12 0 0 0 1.012.425q7.873-.021 15.748-.009a.774.774 0 0 1 .273.008c.078.03.135.117.2.179l-.062.085h-16.447a1.7 1.7 0 0 0 1.427.828c4.9-.054 9.809-.051 14.713-.075a.591.591 0 0 1 .56.29 51.319 51.319 0 0 0 13.5 13.679 1.839 1.839 0 0 1 .157.15z" transform="translate(-462.933 147.604)"/>
    <path id="패스_69" data-name="패스 69" class="cls-1" d="M487.915-109.9c-1.3-.459-2.6-.9-3.9-1.342l-10.7-3.649c-.331-.113-.44-.027-.454.3-.011.258.179.264.332.317q5.13 1.779 10.261 3.553l2.414.843-.012.069h-14.427l.277.817h15.939a2.554 2.554 0 0 1 .42.069l-.015.207h-16.278l.119.861h16.012a1.333 1.333 0 0 1 .333.108l-.028.145h-16.325l-.112.891h15.877a2.889 2.889 0 0 1 .42.06l-.01.2-16.375.016c-.067.215-.175.523-.268.82h16.523a.5.5 0 0 0 .35-.244 3.814 3.814 0 0 0 .012-3.714.773.773 0 0 0-.385-.327z" transform="translate(-462.933 147.604)"/>
    <path id="패스_70" data-name="패스 70" class="cls-1" d="M571.812-108.04h-1.141c0-1.1.03-2.065-.022-3.025-.013-.239-.272-.641-.453-.662a17.835 17.835 0 0 0-2.074-.032v6.155h18.811v-2.365c-.39-.023-.781-.067-1.172-.068q-6.973-.006-13.949-.003z" transform="translate(-462.933 147.604)"/>
    <path id="패스_71" data-name="패스 71" class="cls-1" d="M584.269-124.824v12.178l2.664-.178v-11.8z" transform="translate(-462.933 147.604)"/>
    <path id="패스_72" data-name="패스 72" class="cls-1" d="M538.885-112.181h-13.371l-.081-1.515h-2.57v8.058h18.682v-8.044h-2.577l-.083 1.501zm0 4.048h-13.362v-1.45h13.358z" transform="translate(-462.933 147.604)"/>
    <path id="패스_73" data-name="패스 73" class="cls-1" d="m568.795-113.373 4.691-5.133 4.593 5.227 2.092-1.966-5.653-5.474a37.124 37.124 0 0 1 4.156-.232c.261-.01.7-.279.733-.478a13.027 13.027 0 0 0 .036-1.922h-11.869v2.466h4.746l-5.4 5.783z" transform="translate(-462.933 147.604)"/>
    <path id="패스_74" data-name="패스 74" class="cls-1" d="M528.494-119.121c1.722 1.422 3.387 2.8 5.08 4.2l1.86-1.785-5.676-4.689.03-.259h4.876v-2.427h-12.288v2.465h4.787l.062.2-5.686 4.724 1.878 1.771z" transform="translate(-462.933 147.604)"/>
    <path id="패스_75" data-name="패스 75" class="cls-1" d="M548.065-110.858c-.014-.24-.274-.643-.455-.663a20.4 20.4 0 0 0-2.2-.032v5.92h18.76v-2.394h-16.083c0-1.022.033-1.929-.022-2.831z" transform="translate(-462.933 147.604)"/>
    <path id="패스_76" data-name="패스 76" class="cls-1" d="M548.187-119.618a3.651 3.651 0 0 0-1.884 3.028c-.1 2.434 1.81 4.235 4.556 4.4a16.378 16.378 0 0 0 2.478-.767 3.729 3.729 0 0 0 1.109-5.911 5.179 5.179 0 0 0-6.259-.75zm4.725 3.32a2.007 2.007 0 0 1-2.1 1.6 1.9 1.9 0 0 1-1.979-1.609c-.022-.926.836-1.6 2.035-1.593 1.169 0 2.072.712 2.044 1.6z" transform="translate(-462.933 147.604)"/>
    <path id="패스_77" data-name="패스 77" class="cls-1" d="M556.988-123.322h-4.817v-1.359c0-.194-.309-.47-.481-.484-.681-.056-2.237-.023-2.237-.023v1.97h-4.737v2.357h12.272z" transform="translate(-462.933 147.604)"/>
    <path id="패스_78" data-name="패스 78" class="cls-1" d="M564.228-123.743c0-.291-.038-.581-.058-.876h-2.613v1.021c0 3.387-.015 6.775.005 10.162.011 1.956-.334 1.671 1.717 1.74.758.025.974-.228.967-.977-.034-3.69-.014-7.38-.018-11.07z" transform="translate(-462.933 147.604)"/>
    <path id="패스_79" data-name="패스 79" class="cls-1" d="M541.526-124.625h-2.536v9.6h2.536z" transform="translate(-462.933 147.604)"/>
    <path id="패스_80" data-name="패스 80" class="cls-1" d="M581.6-116.938a1.694 1.694 0 0 0 1.749-1.78 1.691 1.691 0 0 0-1.8-1.821 1.711 1.711 0 0 0-1.766 1.775 1.728 1.728 0 0 0 1.817 1.826z" transform="translate(-462.933 147.604)"/>
    <path id="패스_81" data-name="패스 81" class="cls-1" d="M559.226-114.108a1.626 1.626 0 0 0 1.774-1.727 1.687 1.687 0 0 0-1.756-1.772 1.677 1.677 0 0 0-1.726 1.708 1.624 1.624 0 0 0 1.708 1.791z" transform="translate(-462.933 147.604)"/>
    <path id="패스_82" data-name="패스 82" class="cls-1" d="M559.3-118.783a1.7 1.7 0 0 0 1.7-1.832 1.636 1.636 0 0 0-1.742-1.675 1.64 1.64 0 0 0-1.738 1.769 1.683 1.683 0 0 0 1.78 1.738z" transform="translate(-462.933 147.604)"/>
</svg>
