<svg data-name="로그인/아웃_아이콘" xmlns="http://www.w3.org/2000/svg" width="24" height="25">
    <path data-name="로그인/아웃_아이콘" d="M-1865.656 665.475a9.6 9.6 0 0 0-9.583-9.6 9.6 9.6 0 0 0-9.583 9.6.959.959 0 0 1-.959.96.959.959 0 0 1-.958-.96 11.51 11.51 0 0 1 11.5-11.52 11.51 11.51 0 0 1 11.5 11.52.959.959 0 0 1-.958.96.959.959 0 0 1-.959-.96zm-15.308-17.28a5.755 5.755 0 0 1 5.75-5.76 5.755 5.755 0 0 1 5.75 5.76 5.755 5.755 0 0 1-5.75 5.76 5.755 5.755 0 0 1-5.75-5.755zm1.917 0a3.841 3.841 0 0 0 3.833 3.84 3.841 3.841 0 0 0 3.833-3.84 3.841 3.841 0 0 0-3.833-3.84 3.841 3.841 0 0 0-3.834 3.845z" transform="translate(1886.74 -642.435)" style="fill:#2d2d2d"/>
</svg>
